<?xml version="1.0" encoding="UTF-8" standalone="no"?>
<!-- Created with Inkscape (http://www.inkscape.org/) -->

<svg
   version="1.1"
   id="svg1"
   width="1440"
   height="1440"
   viewBox="0 0 1440 1440"
   sodipodi:docname="Instagram Icon.eps"
   xmlns:inkscape="http://www.inkscape.org/namespaces/inkscape"
   xmlns:sodipodi="http://sodipodi.sourceforge.net/DTD/sodipodi-0.dtd"
   xmlns="http://www.w3.org/2000/svg"
   xmlns:svg="http://www.w3.org/2000/svg">
  <defs
     id="defs1" />
  <sodipodi:namedview
     id="namedview1"
     pagecolor="#ffffff"
     bordercolor="#000000"
     borderopacity="0.25"
     inkscape:showpageshadow="2"
     inkscape:pageopacity="0.0"
     inkscape:pagecheckerboard="0"
     inkscape:deskcolor="#d1d1d1">
    <inkscape:page
       x="0"
       y="0"
       inkscape:label="1"
       id="page1"
       width="1440"
       height="1440"
       margin="0"
       bleed="0" />
  </sodipodi:namedview>
  <g
     id="g1"
     inkscape:groupmode="layer"
     inkscape:label="1">
    <g
       id="group-R5">
      <path
         id="path2"
         d="M 4022.12,8515.1 C 2726.05,8465.08 2227.37,8028.77 2176.23,6712.5 c -37.62,-968.43 -33.64,-1998.61 16.02,-2964.66 60.36,-1174.07 495.74,-1641.79 1684.86,-1715.17 883.43,-54.52 1877.39,-28.37 2764.9,1.28 626.05,20.91 1210.54,2.13 1655.32,518.8 387.18,449.75 354.71,1012.84 371.75,1568.31 26.56,865.32 49.53,1805.58 0.49,2668.23 -74.33,1307.4 -619.19,1687.53 -1886.48,1731.02 -881.57,30.24 -1879.68,28.8 -2760.97,-5.21 z M 9384.25,6905.83 V 3709.21 l -32.98,-378.27 C 9138.33,1807.5 8125,1337.3 6704.56,1319.77 c -26.26,-0.33 -1681.43,-38.02 -2477.31,-15.79 -890.49,24.86 -1757.44,124.85 -2320.86,901.36 -397.23,547.47 -419.92,1094.66 -443.4,1745.03 -35.59,985.77 -73.89,2173.55 15.05,3149.28 127.72,1401.03 997.42,2054.58 2352.47,2134.47 906.32,53.43 1917.08,28.46 2827.03,-1.28 190.49,-6.23 385.09,1.79 575.21,-15.04 1363.08,-120.62 2082.84,-976.3 2151.5,-2311.97"
         style="fill:#231f20;fill-opacity:1;fill-rule:nonzero;stroke:none"
         transform="matrix(0.13333333,0,0,-0.13333333,0,1440)" />
      <path
         id="path3"
         d="M 5264.76,6590.93 C 4346.38,6501.82 3825.5,5467.47 4250.23,4655.46 c 428.12,-818.48 1585.54,-948.91 2182.26,-239.74 778.2,924.85 38.74,2292.28 -1167.73,2175.21 z m -77.57,713.71 C 7226.33,7485.18 8272.69,5021.55 6735.43,3709.63 5501.58,2656.64 3561.9,3451.56 3388.71,5051.73 3271.3,6136.49 4081.77,7206.77 5187.19,7304.64"
         style="fill:#231f20;fill-opacity:1;fill-rule:nonzero;stroke:none"
         transform="matrix(0.13333333,0,0,-0.13333333,0,1440)" />
      <path
         id="path4"
         d="m 7438.54,7864.23 c 683.15,115.21 785.71,-856.75 178.7,-938.84 -639.39,-86.47 -729.44,845.97 -178.7,938.84"
         style="fill:#231f20;fill-opacity:1;fill-rule:nonzero;stroke:none"
         transform="matrix(0.13333333,0,0,-0.13333333,0,1440)" />
    </g>
  </g>
</svg>
