<?xml version="1.0" encoding="UTF-8"?>
<svg id="Camada_2" data-name="Camada 2" xmlns="http://www.w3.org/2000/svg" viewBox="0 0 545.51 432.68">
  <defs>
    <style>
      .cls-1 {
        font-family: StevieSans-Bold, 'Stevie Sans';
        font-size: 96.94px;
        font-weight: 700;
      }

      .cls-1, .cls-2, .cls-3 {
        fill: #1b1b1b;
      }

      .cls-4 {
        letter-spacing: -.06em;
      }

      .cls-5 {
        letter-spacing: -.02em;
      }

      .cls-6 {
        letter-spacing: -.04em;
      }

      .cls-7 {
        letter-spacing: -.04em;
      }

      .cls-8 {
        letter-spacing: -.03em;
      }

      .cls-9 {
        letter-spacing: -.05em;
      }

      .cls-10 {
        letter-spacing: -.09em;
      }

      .cls-3 {
        font-family: MorningBright, 'Morning Bright';
        font-size: 32.06px;
      }

      .cls-11 {
        letter-spacing: -.03em;
      }
    </style>
  </defs>
  <g id="Camada_1-2" data-name="Camada 1">
    <g>
      <path class="cls-2" d="M203.33,281.1c-3.35-4.74-4.95-10.12-5.55-15.7-.9-8.33-1.76-16.71-1.89-25.08-.29-17.98-.11-35.98-.12-53.97-.01-22.83-.11-45.65,0-68.48.1-20.88,20.22-33.11,37.9-22.95,35.75,20.53,71.44,41.18,107.04,61.97,3.26,1.9,6.31,4.77,8.44,7.89,8.37,12.3,4.02,28.11-9.55,35.94-33.35,19.26-66.71,38.51-100.06,57.76-.7.41-1.45.74-2.56,1.29,0-1.23,0-2.05,0-2.87-.02-32.24-.01-64.49-.07-96.73,0-3.79,1.11-6.85,4.56-8.72,3.48-1.88,6.66-.98,9.79,1.08,18.28,12.02,18.62,38.97.53,51.31-2.13,1.45-2.42,2.91-1.79,5.11,2.26,7.87,11.13,11.95,18.33,7.91,15.68-8.81,31.27-17.77,46.73-26.96,8.85-5.26,8.72-17.82-.19-23.01-25.65-14.95-51.38-29.78-77.17-44.5-9.23-5.27-20.02,1.16-20.04,11.77-.06,49.39-.04,98.77-.12,148.16,0,2.21.8,2.68,2.81,2.69,8.09.05,15.63-1.92,22.61-5.94,35.94-20.72,71.91-41.37,107.76-62.24,29.62-17.25,29.54-59.56-.09-76.75-35.96-20.86-71.98-41.6-108.02-62.31-9.4-5.4-19.58-7.07-30.23-4.92-21.32,4.3-35.86,22.49-35.88,44.85-.05,40.39-.04,80.78-.06,121.17,0,8.03,1.71,15.65,5.53,22.75,4.82,8.97,11.83,15.56,21.37,19.5Z"/>
      <path class="cls-2" d="M203.33,281.1c-9.53-3.93-16.55-10.53-21.37-19.5-3.82-7.1-5.53-14.72-5.53-22.75.01-40.39.01-80.78.06-121.17.03-22.36,14.56-40.55,35.88-44.85,10.65-2.15,20.82-.48,30.23,4.92,36.04,20.71,72.06,41.46,108.02,62.31,29.63,17.18,29.71,59.5.09,76.75-35.85,20.87-71.82,41.53-107.76,62.24-6.98,4.02-14.53,5.99-22.61,5.94-2.01-.01-2.81-.48-2.81-2.69.08-49.39.06-98.77.12-148.16.01-10.61,10.81-17.03,20.04-11.77,25.79,14.71,51.51,29.55,77.17,44.5,8.91,5.19,9.04,17.75.19,23.01-15.45,9.19-31.05,18.15-46.73,26.96-7.19,4.04-16.07-.03-18.33-7.91-.63-2.2-.33-3.65,1.79-5.11,18.09-12.35,17.75-39.29-.53-51.31-3.13-2.06-6.31-2.96-9.79-1.08-3.45,1.86-4.57,4.93-4.56,8.72.06,32.24.05,64.49.07,96.73,0,.82,0,1.64,0,2.87,1.1-.55,1.85-.88,2.56-1.29,33.36-19.25,66.71-38.5,100.06-57.76,13.57-7.84,17.92-23.64,9.55-35.94-2.12-3.12-5.18-5.99-8.44-7.89-35.6-20.79-71.29-41.43-107.04-61.97-17.67-10.15-37.8,2.07-37.9,22.95-.11,22.83-.01,45.65,0,68.48,0,17.99-.17,35.98.12,53.97.14,8.37.99,16.75,1.89,25.08.6,5.58,2.2,10.96,5.55,15.7Z"/>
    </g>
    <text class="cls-1" transform="translate(70.35 369)"><tspan class="cls-7" x="0" y="0">Pl</tspan><tspan class="cls-9" x="81.24" y="0">a</tspan><tspan class="cls-6" x="134.07" y="0">y MKT</tspan></text>
    <g>
      <path class="cls-2" d="M126.43,72.71c-1.22.73-2.87.65-3.78-.9-2.33-3.99-4.87-7.84-7.48-11.61-2.15-3.1-4.39-6.13-6.82-9.02-.09,4.18.56,8.31.84,12.43.19,2.03.23,4.72-1.77,6.04-.81.53-1.73.7-2.74.55-1.4-.21-2.72-.86-4.05-1.43-3.73-1.71-7.18-3.98-10.79-5.93,1.65,4,4.05,7.68,6.54,11.19,1.05,1.47,5.13,7.02,6.71,7.91,1.77,1,1.69,3.43.19,4.52-1.32.96-2.9.39-4.03-.54-1.22-1-2.35-2.17-3.42-3.37-2.33-2.65-4.44-5.54-6.44-8.43-2.21-3.19-6.04-9.54-6.52-13.63-.12-1.5.24-3.02,1.68-4.05.65-.46,1.48-.79,2.32-.8,1.79-.08,3.34.86,4.8,1.6,3.99,2.11,7.7,4.68,11.76,6.6-.36-3.34-.78-6.71-.96-10.13-.12-2.26-.11-6.19,1.32-8.33.32-.51.8-1,1.38-1.34,1.73-1.05,3.71-.59,5,.49,1.82,1.51,3.3,3.44,4.69,5.29,4.68,6.16,8.88,12.6,12.59,19.26.85,1.54.1,2.96-1.03,3.63Z"/>
      <path class="cls-2" d="M137.32,66.09c-3.55,1.89-7.61-.2-9.84-2.98-1.22-1.51-2.06-3.37-2.57-5.22-.76-2.74-.99-5.7-.47-8.52.42-2.3.96-5.27,3.5-6.6.69-.36,1.4-.55,2.09-.54,1.35-.04,5.5.62,6.59,1.28.96-.59,2.19-.59,3.12-.04.69.41,1.14,1.17,1.54,1.81,1.63,2.77,3.12,5.54,4.99,8.13.12.24.77,1.17,1.04,1.33,2.21,1.14,1.49,3.89-.26,4.74-2.4,1.16-4.34-1.38-5.48-2.95-.28,3.36-.79,7.72-4.24,9.56ZM135.3,60.47c1.06-4,.54-8.1-.05-12.1-.47.12-.96.07-1.4,0-1.04-.31-2.08-.49-3.12-.67-1.06,2.9-1.05,6.18-.22,8.99.35,1.2.87,2.47,1.72,3.37.6.63,1.39,1.31,2.31,1.36.43.07.59-.56.76-.95Z"/>
      <path class="cls-2" d="M156.8,56.14c-.97.43-2.18.33-3.06-.5-.36-.36-1.76-2.54-2.04-2.99-1.98-3.08-4.12-6.03-6.43-8.96-1.15-1.52-4.9-5.7-4.71-7.57.12-1.17.9-2.07,1.83-2.49,1.7-.78,3.94-.2,4.21,1.97.6,1.08,1.41,2.06,2.16,3.07.19-3,1.43-6.52,4.83-7.93,1.95-.81,3.91-.44,5.64.36,2.49,1.19,1.59,4.07-.44,4.89-.71.29-1.53.33-2.42-.05-.18-.1-.41-.18-.64-.26-3.32,2.87,1.3,13.63,2.58,16.74.23.65.31,1.43.07,2.06-.28.73-.85,1.36-1.57,1.67Z"/>
      <path class="cls-2" d="M177.99,54.99c-.93.34-2.1.2-2.95-.79-1.94-2.12-3.47-4.62-4.84-7.12-4-7.21-7.22-14.76-10.41-22.35-.19-.44-1.31-3.07-1.41-3.52-.3-1.32.31-2.98,1.94-3.6,1.87-.7,4.19.33,4.14,2.28,0,.02.01.03.02.05.31.91,2.45,6.21,2.81,7.1,1.24,3.01,2.53,6.06,3.84,9.05,1.31-2.57,5.96-10.97,6.69-12.67-.29-1.48.77-2.66,2.11-3.08,1.22-.39,2.67-.14,3.5,1.1.65.97.62,2.32.17,3.41-.81,1.87-6.31,11.63-7.28,13.49,3.13-.58,6.21-1.25,9.29-1.93,3.65-.81,4.88,4.06,1.55,5.1-.11.03-.16.05-.27.08-3.7.82-7.39,1.66-11.08,2.24-.35.05-.52.08-.86.14,1.51,2.97,2.44,4.37,4.38,6.87,1.3,1.68.25,3.58-1.35,4.16Z"/>
      <path class="cls-2" d="M203.62,39.47c-5.59,1.42-12.16-1.71-14.58-6.61-.97-1.99-1.17-4.34-.92-6.51.44-3.81,3.16-7.37,7.49-8.5,3.55-.93,8.26.53,9.82,3.46.66,1.27.75,2.56.25,3.83-.55,1.38-1.82,2.57-3.12,3.39-2.31,1.4-5.04,2.11-7.73,2.74,1.42,1.99,4.6,3.72,7.3,3.03.79-.2,1.59-.57,2.17-1.09.3-.24.54-.46.91-.66,3.02-1.55,5.88,2.07,3.35,4.24-1.35,1.19-3.09,2.22-4.92,2.68ZM197.59,24.94c.81-.3,1.72-.72,2.3-1.31-.75-.64-1.9-.89-2.89-.63-1.46.38-2.3,1.72-2.73,2.94,1.09-.3,2.29-.62,3.32-1Z"/>
      <path class="cls-2" d="M221.38,37.11c-.96.18-1.95-.06-2.84-.59-1.02-.61-1.8-1.65-2.35-2.73-1.85-3.54-2.81-7.42-3.78-11.25-.53.11-1.1.29-1.63.4-3.82,1.05-5.62-3.91-1.75-5.02.84-.25,1.26-.37,2.11-.62-1.22-4.98-3.04-12.27-3.5-13.83-.49-1.67.78-2.95,2.42-3.29,1.51-.31,3.21.21,3.72,1.82.51,1.61,2.2,8.71,3.4,13.98,1.26-.24,2.64-.55,3.81-.11,2.89,1.11,2.18,4.75-.9,5.1-.6.06-1.21.12-1.8.23.03.15.05.22.08.36.7,3.02,1.45,6.02,2.63,8.9.32-.17.66-.29,1-.35,2.25-.42,4.3,1.75,3.13,3.82-.81,1.44-1.89,2.83-3.75,3.18Z"/>
      <path class="cls-2" d="M226.76,5.96c-.56.09-1.09.01-1.71-.16-1.87-.56-3.16-2.3-2.49-3.87.47-1.1,1.51-1.71,2.59-1.88,1.46-.23,3.02.29,3.56,1.62.08.09.01.05.08.09,1.47,1.73.03,3.88-2.03,4.2ZM232.74,33.55c-1.09.16-2.28-.19-2.99-1.43-.46-.84-.86-1.7-1.22-2.61-1.66-4.21-2.94-8.69-3.61-13.14-.26-1.73.14-3.71,2.53-4.09,2.02-.32,4.24,1.03,3.61,3.23-.12.34.21,1.75.27,2.06.78,4.04,1.73,8.43,3.69,12.14,1,1.96-.56,3.58-2.29,3.84Z"/>
      <path class="cls-2" d="M242.62,31.54c-1.34.16-2.74-.48-3.41-1.73-.86-1.6-1.32-3.41-1.86-5.08-.44-1.36-2.56-9.38-2.91-10.81-.2-.82-.21-1.81.28-2.57.53-.83,1.36-1.2,2.23-1.31,2.05-.26,4.24,1.16,3.65,3.27.23,1,.51,1.93.72,2.87,1.06-3.4,3.84-8.61,8.63-9.03,3.21-.28,5.5,1.61,7.14,3.75,2.86,3.93,3.53,8.88,3.85,13.46,0,.59.05,1.17.04,1.71-.03,1.66-1.32,2.48-2.75,2.57-1.54.1-3.19-.8-3.27-2.61-.11-2.5-.39-5-1-7.47-.36-1.47-1.71-5.22-3.33-6.05-3.8,1.99-4.75,11.18-5.04,14.53-.16,1.88-.42,4.22-2.98,4.52Z"/>
      <path class="cls-2" d="M272.33,39.56c-.98.02-1.97-.12-2.75-.63-2.23-1.59-.93-4.88,1.84-4.74,1.09.05,2.23-.04,3.29-.27,4.09-.85,4.55-2.1,4.59-5.89.03-2.56-.26-5.12-.62-7.69-1.89,3.09-5.35,6.76-9.64,6.97-3,.14-5.34-1.59-6.24-4.03-.68-1.85-.7-4-.43-5.91.65-4.75,6.01-12.39,12.7-12.45.96,0,1.96.13,2.86.41,1.43.44,4.71,2.86,5.09,4.2,0,.02,0,.03,0,.05.82,1.24,1.4,6.65,1.56,8.04.35,3.32.79,6.71.75,10-.03,2.23-.17,4.59-1.26,6.59-2.07,3.96-7.27,5.25-11.72,5.33ZM268.64,21.93c1.08-.25,1.89-.96,2.64-1.67,1.03-1.09,1.84-2.39,2.54-3.68,1.01-1.85,1.82-3.81,2.65-5.8-.13-.05-.53-.42-.66-.48-.13-.05-.51-.05-.64-.05-1.57.17-4.09,2.79-4.88,3.93-1.36,1.85-2.1,4.12-1.93,6.3.04.48.13.96.29,1.43Z"/>
    </g>
    <g>
      <path class="cls-2" d="M6.34,405.02c-1.15-.49-1.87-1.74-1.28-2.89,1.16-2.27,2.76-4.39,4.25-6.5,3.03-4.23,6.18-8.5,9.91-12.15,1.86-1.82,5.29-4.77,8.08-3.71.48.18.91.48,1.32.86,3.25,3.01.84,13.24.11,16.78-.1.49-.62,1.67-.53,2.35.01.08.11.22.13.31.42.99-.49,1.92-.84,2.38-.99,1.28-1.55,5.12-2.26,5.93-.74.85-1.75.95-2.6.64-1.35-.48-2.31-1.91-1.27-3.23.43-.56,1.21-3.27,1.41-3.91.02-.05.03-.07.05-.12-.61-.22-1.29-.45-1.9-.66-2.58-.9-5.35-1.69-7.88-2.78-1.33,1.86-2.65,3.73-3.61,5.74-.46.96-1.92,1.43-3.07.94ZM22.26,397.14c.26.1.9.34,1.69.58.83-3.1,2.62-10.85,1.74-13.83-3.71,1.95-7.85,7.66-10.17,10.94,2.21.9,4.5,1.61,6.73,2.32Z"/>
      <path class="cls-2" d="M33.65,413.28c-.51-.16-.95-.34-1.35-.51-2.84-1.33-.92-4.95,1.92-3.76.36.11.72.33,1.07.38.5.06,1.04-.12,1.5-.29.18-.08.56-.29.59-.44.17-.72-1.28-2.67-1.79-3.36-1.55-2.11-3.28-4.27-3.73-6.67-.18-1.12-.13-2.31.29-3.36.95-2.38,4.35-3.94,6.97-3.12,1.99.62,2.61,2.21,2.92,4.01.32,1.83-1.53,2.75-2.97,2.31-.69-.21-1.28-.75-1.46-1.64-.06-.24-.08-.47-.15-.71-.42.13-.89.38-1.1.71-.55,1.06.86,3.28,1.59,4.28.82,1.13,1.74,2.28,2.52,3.43.76,1.12,1.44,2.43,1.56,3.73.15,1.6-.47,2.94-1.84,3.94-1.73,1.25-4.36,1.76-6.56,1.08Z"/>
      <path class="cls-2" d="M48.21,417.33c-.51-.13-.97-.29-1.38-.43-2.92-1.18-1.2-4.9,1.72-3.86.37.09.74.29,1.09.32.51.04,1.04-.18,1.48-.37.17-.09.54-.32.57-.47.13-.72-1.43-2.6-1.98-3.26-1.67-2.02-3.53-4.08-4.11-6.46-.24-1.11-.26-2.3.1-3.37.82-2.43,4.15-4.17,6.82-3.5,2.03.51,2.74,2.06,3.15,3.84.42,1.81-1.39,2.83-2.85,2.47-.71-.17-1.33-.68-1.55-1.56-.08-.24-.11-.46-.18-.7-.42.15-.87.43-1.06.77-.49,1.09,1.04,3.23,1.83,4.19.89,1.09,1.87,2.18,2.71,3.29.82,1.08,1.58,2.35,1.77,3.64.24,1.58-.31,2.96-1.63,4.03-1.67,1.35-4.27,1.99-6.52,1.44Z"/>
      <path class="cls-2" d="M65.82,419.87c-4.8-.87-8.3-5.56-7.86-9.8.18-1.72,1.03-3.39,2.12-4.79,1.86-2.48,5-3.93,8.24-3.33,2.67.49,5.31,2.93,5.39,5.49.03,1.11-.34,2.07-1.14,2.84-.87.83-2.21,1.31-3.43,1.47-2.14.28-4.38-.15-6.52-.66.19,1.88,1.8,4.21,4.05,4.62.65.12,1.38.12,2.01-.07.31-.07.57-.16.91-.18,2.79-.16,3.69,3.29.98,4.08-1.46.44-3.18.62-4.75.33ZM67.01,407.61c.66.05,1.45.05,2.06-.18-.28-.69-.97-1.24-1.73-1.38-1.13-.21-2.21.44-2.98,1.14.86.17,1.8.35,2.65.42Z"/>
      <path class="cls-2" d="M79.93,423.28c-.53-.07-1.01-.17-1.44-.27-3.07-.83-1.78-4.73,1.27-4.03.38.05.77.2,1.14.19.51-.02,1.02-.3,1.45-.54.16-.11.51-.38.52-.53.05-.73-1.74-2.42-2.37-3.01-1.91-1.82-4.02-3.65-4.88-5.95-.37-1.08-.53-2.25-.29-3.36.54-2.5,3.68-4.62,6.45-4.26,2.1.28,3,1.73,3.62,3.45.64,1.75-1.07,2.97-2.57,2.78-.73-.09-1.41-.52-1.74-1.37-.1-.23-.16-.45-.27-.67-.4.2-.82.53-.97.89-.37,1.14,1.43,3.08,2.33,3.95,1.02.98,2.14,1.95,3.11,2.95.95.97,1.86,2.15,2.2,3.41.42,1.55.04,2.98-1.16,4.19-1.52,1.53-4.06,2.47-6.38,2.18Z"/>
      <path class="cls-2" d="M95.21,424.8c-.54-.04-1.02-.12-1.46-.19-3.13-.66-2.04-4.62,1.06-4.09.39.03.79.16,1.15.13.52-.05,1.01-.35,1.42-.62.16-.12.49-.41.49-.56,0-.74-1.88-2.32-2.54-2.87-2.02-1.71-4.24-3.42-5.23-5.67-.43-1.05-.66-2.22-.48-3.34.41-2.53,3.44-4.82,6.24-4.6,2.12.16,3.11,1.57,3.83,3.25.74,1.72-.91,3.02-2.44,2.92-.74-.05-1.45-.44-1.83-1.27-.12-.22-.19-.44-.3-.66-.39.22-.8.57-.93.94-.31,1.16,1.6,3,2.56,3.82,1.08.92,2.25,1.83,3.29,2.78,1.01.92,1.99,2.05,2.4,3.28.51,1.52.2,2.97-.94,4.25-1.44,1.61-3.94,2.69-6.29,2.52Z"/>
      <path class="cls-2" d="M111.14,422.89c-3.82-.06-6.88-2.48-7.33-5.76-.28-2.06.4-4.32,1.3-6.22.62-1.31,1.36-2.64,2.41-3.7,1.08-1.08,2.99-1.82,4.55-1.5.5.13,1,.35,1.41.6.47-.38,1.17-.62,1.82-.62,3.59.21,6.66,4.3,6.96,7.22.14,1.42-.16,2.91-.9,4.23-1.68,3.02-6.19,5.82-10.21,5.76ZM111.31,418.64c2.12.03,4.99-1.78,5.8-3.38.45-.8.5-1.82.16-2.61-.28-.65-1.49-2.68-2.42-2.77-.23,0-.51-.09-.74-.17-.48.42-1.05.62-1.66.62-.52,0-1.02-.18-1.43-.4-.73.58-1.9,3.29-2.14,4.12-.23.79-.4,1.69-.28,2.47.19,1.27,1.23,2.09,2.72,2.11Z"/>
      <path class="cls-2" d="M128.59,424.41c-.94.04-1.89-.38-2.28-1.25-.15-.37-.43-2.39-.48-2.8-.35-2.82-.96-5.67-1.54-8.49-.3-1.44-1.42-5.63-.64-6.96.5-.81,1.32-1.22,2.11-1.25,1.43-.06,2.8,1.01,2.27,2.67.07.96.32,1.92.53,2.88,1.13-2.16,3.1-4.41,5.93-4.62,1.63-.12,2.92.61,3.97,1.62,1.5,1.47.05,3.46-1.7,3.6-.61.05-1.24-.11-1.78-.62-.1-.12-.25-.23-.39-.35-3.3,1.34-3.38,10.54-3.44,13.2-.04.55-.25,1.15-.67,1.55-.49.47-1.18.78-1.88.81Z"/>
      <path class="cls-2" d="M144.83,422.7c-.95.1-1.93-.23-2.37-1.24-.29-.68-.52-1.39-.71-2.13-.87-3.42-1.31-7.01-1.34-10.6,0-1.39.52-2.92,2.35-3.11,1.55-.16,3.11.97,2.44,2.69-.12.27.01,1.39.03,1.65.25,3.23.63,6.76,1.9,9.73.67,1.56-.81,2.85-2.3,3.01ZM142.83,400.59c-.41.04-.79-.04-1.22-.21-1.29-.54-2.03-1.99-1.4-3.2.44-.84,1.22-1.26,1.99-1.34,1.04-.11,1.99.59,2.37,1.43.03.07,0,.04.05.08.91,1.42-.28,3.08-1.79,3.24Z"/>
      <path class="cls-2" d="M155.47,422.18c-3.65.52-6.12-2.24-6.79-4.95-.36-1.48-.29-3.1.01-4.62.45-2.25,1.34-4.49,2.67-6.45,1.08-1.6,2.4-3.65,4.64-4,.61-.1,1.18-.06,1.68.11,1,.31,3.89,1.77,4.53,2.51.89-.24,1.82.02,2.38.63.41.46.57,1.14.7,1.71.54,2.43,1.19,5.08,1.72,7.29.04.19.3,1.06.48,1.24,1.5,1.3.11,3.32-1.63,3.64-2.39.44-3.19-1.95-3.63-3.41-1.29,2.53-3.21,5.8-6.76,6.31ZM155.85,417.41c2.26-2.76,3.16-6.02,3.91-9.22-.39-.02-.75-.17-1.07-.33-.69-.48-1.42-.88-2.15-1.27-1.7,1.93-2.8,4.38-3.15,6.72-.14,1-.2,2.09.15,2.99.24.64.63,1.36,1.35,1.63.32.17.67-.27.95-.52Z"/>
    </g>
    <g>
      <path class="cls-2" d="M424.55,432.59c-.48.16-1.06.13-1.57-.31-.8-.64-1.36-1.5-1.87-2.34-1.4-2.34-2.4-4.9-3.26-7.45-.86-2.55-1.62-5.13-2.21-7.74-.24-.29-.38-.68-.33-1.14,0-.17.05-.36.12-.55.14-.69.8-1.05,1.31-1.22.19-.06.41-.21.63-.28,1.37-.64,2.9-.95,4.36-1.13,2.45-.3,6-.14,7.85,1.75.67.68,1.16,1.61,1.31,2.52.51,3.11-1.77,6.38-3.7,8.78-.63.8-2.22,2.57-3.2,2.91-.38.13-.71.11-1.02.01.59,1.25,1.29,2.57,2.25,3.5.99.96.38,2.34-.67,2.7ZM421.98,424.13c.11-.17.26-.36.48-.54,1.87-1.39,4.8-5.16,5.15-7.49.11-.58,0-1.33-.46-1.74-1.05-.96-3.46-.95-4.8-.8-1.14.13-2.34.37-3.44.81.69,2.85,1.59,5.69,2.56,8.43.16.45.32.91.5,1.32Z"/>
      <path class="cls-2" d="M447.66,423.73c-1.41.53-2.4-.86-2.95-1.87-.4-.73-.71-1.48-1.05-2.24-.31,1.96-1.04,5.45-3.21,6.24-1.92.7-3.48-.88-4.48-2.23-1.81-2.35-3.03-5.24-3.61-8.06-.12-.56-.28-1.2-.08-1.74.17-.48.55-.88,1.05-1.06.4-.15.89-.15,1.32.06,1.14.51,1.82,1.76,1.12,2.8.5,1.9,1.31,3.78,2.43,5.42.34.52.72,1.07,1.21,1.5.53-1.05.79-2.23.98-3.4.37-2.29.29-4.62.26-6.93-.01-.95.09-1.78,1.11-2.16.62-.23,1.3-.11,1.8.38.33.32.49.81.65,1.23.89,2.47,1.75,4.96,2.83,7.36.12.3.78,1.62.94,1.87.56.34.83.92.75,1.53-.08.61-.54,1.09-1.07,1.29Z"/>
      <path class="cls-2" d="M454.45,423.62c-.44.17-.99.14-1.48-.09-1.82-.85-5.74-10.64-6.57-12.75-1.03-2.63-2.01-5.33-2.73-8.01-.26-.95.27-1.64.97-1.91.79-.3,1.8-.04,2.14,1,.03.09.18.55.17.62,1.02,3.49,2.38,6.87,3.78,10.22.29-2.76,1.47-5.92,4.34-7.05,2.68-1.06,4.83.68,5.92,3.03.85,1.82,1.15,4.08.61,6-.57,2.05-2.14,3.71-4.16,4.5-.81.32-1.63.5-2.47.65.12.47.3.92.41,1.39.24.97.22,1.98-.94,2.42ZM456.01,416.24c2.41-.94,2.94-3.17,2.29-5.37-.34-1.17-1.04-2.65-2.08-2.24-.8.31-1.34,1.25-1.62,1.98-.77,1.88-.78,4.09-.44,6.09.62-.07,1.27-.22,1.86-.45Z"/>
      <path class="cls-2" d="M469.75,419.15c-1.27.52-1.96-.52-2.52-1.43-2.87-5.03-5.06-10.43-6.99-15.9-.41-1.18-.84-2.39-1.29-3.59-.13-.33-.26-.66-.3-.98-.1-.82.35-1.45.95-1.7.84-.34,1.95-.03,2.21,1.11.04.11.07.16.11.27.89,2.33,1.68,4.69,2.56,7.02,1.62,4.29,3.55,8.58,5.93,12.56.04.09.06.15.12.19.7.89.19,2.07-.77,2.46Z"/>
      <path class="cls-2" d="M466.7,397.48c-.27.11-.55.12-.88.09-1.01-.14-1.87-1.03-1.73-2.02.1-.69.54-1.16,1.05-1.37.69-.28,1.52-.15,1.97.57.06.05.01.03.06.05.96.85.54,2.27-.46,2.69ZM473.59,412.94c-.58.24-1.29.19-1.85-.45-.37-.44-.7-.89-1.02-1.38-1.47-2.27-2.72-4.76-3.63-7.31-.35-.99-.39-2.19.79-2.68,1-.41,2.32.11,2.3,1.47-.02.22.35,1,.43,1.18.97,2.27,2.08,4.72,3.69,6.62.83,1.01.21,2.17-.71,2.55Z"/>
      <path class="cls-2" d="M480.88,410.15c-1.68.72-3.79.45-5.14-.75-2.44-2.14-3.38-6.95-1.8-9.81.32-.59.82-1.15,1.45-1.42.81-.34,2.81-.22,3.43.34.82.75.62,2.12-.43,2.62-.5.24-1.13.13-1.65.08-.71,1.42-.11,4.29.93,5.52.3.36.88.62,1.35.61.21,0,.42-.04.63-.13.3-.13.54-.33.77-.54.84-.81,1.37-1.88,1.95-2.86.21-.34.46-.58.76-.71,1.27-.55,2.96.74,2.11,2.23-1.07,1.89-2.25,3.91-4.39,4.82Z"/>
      <path class="cls-2" d="M482.67,390.67c-.27.12-.54.13-.88.1-1.01-.12-1.89-.99-1.77-1.99.08-.7.51-1.17,1.01-1.39.68-.3,1.51-.18,1.97.53.06.05.01.03.06.05.97.83.58,2.26-.4,2.69ZM489.88,405.98c-.58.25-1.29.22-1.86-.41-.38-.43-.72-.87-1.05-1.36-1.51-2.24-2.81-4.7-3.77-7.23-.37-.98-.44-2.19.73-2.7.99-.43,2.32.06,2.32,1.43-.01.22.37.99.45,1.17,1.01,2.25,2.18,4.68,3.82,6.54.85.99.26,2.16-.65,2.56Z"/>
      <path class="cls-2" d="M506.47,405.37c-.75.35-1.56.05-2.14-.46-2.33-1.89-4.97-6.88-6.32-9.47.14,2.16.17,5.56-1.95,6.97-.35.26-.79.42-1.22.51-2.4.48-4.51-2.21-5.31-4.4-1.12-3.08-.21-7.82,3.1-9.33.39-.17.77-.28,1.19-.29-.29-1.49-.61-3.01-1-4.4-.07-.24-.44-1.73-.49-1.99-.09-.81.34-1.49.98-1.79.47-.22,1.01-.22,1.51.11.52.35.76,1.02,1,1.62,1.39,3.2,2.62,6.45,4.13,9.59,1.27,2.62,2.69,5.18,4.29,7.61.52.78,1.05,1.6,1.71,2.28.09.1.4.45.53.5,1.4.62,1.12,2.41-.03,2.94ZM494.28,399.74c.95-1.41.36-5.72.13-7.3-.16-.1-.31-.21-.5-.3-.51.3-.91.84-1.17,1.37-.75,1.74-.51,3.85.67,5.39.25.31.5.62.86.84Z"/>
      <path class="cls-2" d="M509.72,397.6c-2.18,1.03-4.52-.43-5.7-2.21-.64-.97-1.04-2.13-1.26-3.26-.32-1.68-.33-3.45.03-5.1.3-1.35.66-3.07,2.07-3.74.38-.18.77-.26,1.15-.23.74.04,3.02.58,3.62,1,.53-.33,1.21-.3,1.73.06.39.26.64.72.87,1.11.93,1.68,1.8,3.36,2.9,4.93.07.14.46.7.62.8,1.29.69.9,2.34-.14,2.84-1.43.69-2.56-.87-3.21-1.83-.19,2.01-.56,4.64-2.68,5.64ZM508.68,394.16c.72-2.36.47-4.83.17-7.24-.26.05-.54,0-.79-.05-.58-.22-1.16-.37-1.74-.52-.64,1.68-.72,3.64-.32,5.36.17.73.43,1.52.9,2.09.33.4.77.84,1.31.9.25.06.36-.31.47-.54Z"/>
      <path class="cls-2" d="M531.99,393.03c-.74.37-1.55.1-2.14-.39-2.39-1.81-5.19-6.72-6.62-9.26.21,2.15.36,5.55-1.7,7.03-.34.28-.77.45-1.19.55-2.37.56-4.57-2.07-5.44-4.22-1.23-3.04-.49-7.81,2.76-9.42.38-.19.75-.3,1.17-.33-.34-1.47-.71-2.98-1.15-4.37-.07-.24-.5-1.72-.56-1.97-.11-.8.29-1.5.92-1.82.46-.23,1-.25,1.51.07.53.33.79,1,1.05,1.58,1.49,3.16,2.83,6.36,4.45,9.45,1.35,2.58,2.86,5.08,4.54,7.47.54.77,1.1,1.56,1.78,2.22.09.1.41.44.55.48,1.41.58,1.2,2.37.07,2.94ZM519.66,387.79c.89-1.44.16-5.72-.12-7.3-.16-.1-.32-.2-.51-.28-.49.32-.87.86-1.11,1.41-.68,1.77-.37,3.86.86,5.36.26.3.52.6.89.81Z"/>
      <path class="cls-2" d="M536.95,383.47c-2.94,1.53-7.04.34-8.9-2.34-.75-1.09-1.11-2.46-1.21-3.77-.18-2.29.84-4.6,2.93-5.68,1.72-.89,4.34-.56,5.58.96.53.66.77,1.4.69,2.2-.09.87-.6,1.72-1.19,2.35-1.05,1.09-2.44,1.81-3.83,2.45,1.01,1.03,2.99,1.7,4.39.98.41-.21.8-.52,1.04-.9.13-.18.23-.34.4-.5,1.43-1.29,3.53.43,2.46,2.04-.57.88-1.4,1.71-2.36,2.2ZM531.73,375.64c.39-.26.82-.6,1.05-1.01-.48-.29-1.12-.32-1.61-.07-.72.37-1,1.24-1.08,2,.55-.28,1.15-.59,1.65-.92Z"/>
    </g>
    <g>
      <text class="cls-3" transform="translate(400.32 263.14) rotate(-7.54)"><tspan class="cls-10" x="0" y="0">T</tspan><tspan class="cls-11" x="10.87" y="0">r</tspan><tspan class="cls-5" x="21.83" y="0">á</tspan><tspan class="cls-8" x="35.14" y="0">f</tspan><tspan class="cls-5" x="44.43" y="0">ego </tspan><tspan class="cls-4" x="90.76" y="0">P</tspan><tspan class="cls-5" x="105.6" y="0">ago</tspan></text>
      <path class="cls-2" d="M430.38,240.67c-.12.63-.77,1-1.37.78-.72-.27-1.5-.62-1.55-.82-.07-.26.29-1.54.46-2.12.06-.19.17-.36.32-.49l.89-.77c.58-.5,1.48-.22,1.67.52v.05c.05.15.06.31.03.46l-.45,2.39Z"/>
    </g>
  </g>
</svg>