<?xml version="1.0" encoding="UTF-8" standalone="no"?>
<!-- Created with Inkscape (http://www.inkscape.org/) -->

<svg
   version="1.1"
   id="svg1"
   width="1440"
   height="1440"
   viewBox="0 0 1440 1440"
   sodipodi:docname="WhatsApp Icon.eps"
   xmlns:inkscape="http://www.inkscape.org/namespaces/inkscape"
   xmlns:sodipodi="http://sodipodi.sourceforge.net/DTD/sodipodi-0.dtd"
   xmlns="http://www.w3.org/2000/svg"
   xmlns:svg="http://www.w3.org/2000/svg">
  <defs
     id="defs1" />
  <sodipodi:namedview
     id="namedview1"
     pagecolor="#ffffff"
     bordercolor="#000000"
     borderopacity="0.25"
     inkscape:showpageshadow="2"
     inkscape:pageopacity="0.0"
     inkscape:pagecheckerboard="0"
     inkscape:deskcolor="#d1d1d1">
    <inkscape:page
       x="0"
       y="0"
       inkscape:label="1"
       id="page1"
       width="1440"
       height="1440"
       margin="0"
       bleed="0" />
  </sodipodi:namedview>
  <g
     id="g1"
     inkscape:groupmode="layer"
     inkscape:label="1">
    <g
       id="group-R5">
      <path
         id="path2"
         d="M 2580.8,2549.77 3736.69,2844.7 C 5406.57,1783.06 7660.53,2534.47 8312.74,4405.6 9120.5,6723.01 7046.66,8993.61 4667.92,8407.69 2594.98,7897.09 1679.53,5435.56 2884.91,3676.3 Z m -885.3,-885.48 512.88,1903.26 C 771.938,6148.38 2685.56,9277.41 5649.17,9120.83 7460.94,9025.1 9006.75,7495.38 9105.29,5680.24 9265.03,2738.01 6229.09,819.102 3631.06,2176.03 L 1695.5,1664.29"
         style="fill:#231f20;fill-opacity:1;fill-rule:nonzero;stroke:none"
         transform="matrix(0.13333333,0,0,-0.13333333,0,1440)" />
      <path
         id="path3"
         d="m 4036.81,7128.22 c 58.89,10 278.94,12.84 331.08,-3.2 25.37,-7.8 59.96,-41.8 76.8,-63 65.29,-82.21 296.99,-654 338.18,-780.13 32.61,-99.89 19.63,-123.7 -30.26,-211.2 -55.48,-97.27 -216.11,-243.57 -249.53,-325.19 -37.32,-91.17 77.82,-233.86 130.9,-311.56 259.03,-379.13 639.64,-697.91 1063.36,-878.28 81.2,-34.57 177.12,-96.98 254.71,-26.09 l 339.85,421.23 c 71.07,57.08 172.22,6.86 244.71,-21.87 243.73,-96.62 470.65,-239.34 709.69,-346.56 58.08,-46.38 46.12,-165.49 39.09,-236.73 -61.55,-624.48 -768.32,-775.82 -1283.7,-635.09 -792.88,216.5 -1423.72,718.32 -1920.4,1357.1 -334.06,429.63 -662.6,933.46 -498.75,1505.18 49.84,173.92 264.1,523.08 454.27,555.39"
         style="fill:#231f20;fill-opacity:1;fill-rule:nonzero;stroke:none"
         transform="matrix(0.13333333,0,0,-0.13333333,0,1440)" />
    </g>
  </g>
</svg>
