<svg width="468" height="88" viewBox="0 0 468 88" fill="none" xmlns="http://www.w3.org/2000/svg">
<path d="M0 86.9715C0 86.9872 0.012761 87 0.0285026 87C0.0575148 87 0.0728664 87.0457 0.0552174 87.0688C0.0206319 87.1139 0 87.1702 0 87.2314C0.000258871 87.3798 0.121102 87.5001 0.269531 87.5L467.365 87.1865C467.439 87.1865 467.5 87.1268 467.5 87.0527C467.5 86.9784 467.44 86.918 467.365 86.918C452.804 86.919 441 75.1155 441 60.5547V43C441 19.2518 421.748 0 398 0H43C19.2518 0 0 19.2518 0 43V86.9715Z" fill="white"/>
</svg>
